
<svg width="512" height="512" viewBox="0 0 512 512" fill="none" xmlns="http://www.w3.org/2000/svg">
  <!-- Fundo Sombrio -->
  <rect width="512" height="512" rx="100" fill="#06080E"/>
  
  <!-- Brilho de Fundo -->
  <circle cx="256" cy="256" r="180" fill="#22D3EE" fill-opacity="0.05"/>
  
  <!-- Hexágono do Sistema -->
  <path d="M256 60L425.744 158V354L256 452L86.2564 354V158L256 60Z" stroke="#22D3EE" stroke-width="12" stroke-linejoin="round"/>
  <path d="M256 85L403.231 170V342L256 427L108.769 342V170L256 85Z" stroke="#22D3EE" stroke-width="4" stroke-opacity="0.3"/>
  
  <!-- Símbolo Central (S de Sombra / Nível) -->
  <path d="M180 200L256 140L332 200V312L256 372L180 312V200Z" fill="#22D3EE" fill-opacity="0.1"/>
  <path d="M256 180V332" stroke="#22D3EE" stroke-width="20" stroke-linecap="round"/>
  <path d="M200 240L256 184L312 240" stroke="#22D3EE" stroke-width="20" stroke-linecap="round" stroke-linejoin="round"/>
  
  <!-- Detalhes HUD (Barra de XP) -->
  <rect x="150" y="390" width="212" height="8" rx="4" fill="#22D3EE" fill-opacity="0.2"/>
  <rect x="150" y="390" width="140" height="8" rx="4" fill="#22D3EE"/>
  
  <defs>
    <filter id="glow" x="0" y="0" width="512" height="512" filterUnits="userSpaceOnUse" color-interpolation-filters="sRGB">
      <feFlood flood-opacity="0" result="BackgroundImageFix"/>
      <feColorMatrix in="SourceAlpha" type="matrix" values="0 0 0 0 0 0 0 0 0 0 0 0 0 0 0 0 0 0 127 0" result="hardAlpha"/>
      <feOffset/>
      <feGaussianBlur stdDeviation="15"/>
      <feComposite in2="hardAlpha" operator="out"/>
      <feColorMatrix type="matrix" values="0 0 0 0 0.133333 0 0 0 0 0.827451 0 0 0 0 0.933333 0 0 0 0.5 0"/>
      <feBlend mode="normal" in2="BackgroundImageFix" result="effect1_dropShadow_1_2"/>
      <feBlend mode="normal" in="SourceGraphic" in2="effect1_dropShadow_1_2" result="shape"/>
    </filter>
  </defs>
</svg>
